<svg width="150" height="189" viewBox="0 0 150 189" fill="none" xmlns="http://www.w3.org/2000/svg">
<path fill-rule="evenodd" clip-rule="evenodd" d="M71.3014 2.94117C33.5471 2.94117 2.94117 33.5471 2.94117 71.3014C2.94117 109.056 33.5471 139.662 71.3014 139.662C109.056 139.662 139.662 109.056 139.662 71.3014C139.662 33.5471 109.056 2.94117 71.3014 2.94117ZM0 71.3014C0 31.9227 31.9227 0 71.3014 0C110.68 0 142.603 31.9227 142.603 71.3014C142.603 96.634 129.392 118.881 109.484 131.529L149.712 186.008C150.195 186.661 150.056 187.582 149.403 188.065C148.75 188.547 147.829 188.409 147.346 187.755L106.959 133.06C96.4696 139.129 84.2912 142.603 71.3014 142.603C31.9227 142.603 0 110.68 0 71.3014Z" fill="black"/>
<path fill-rule="evenodd" clip-rule="evenodd" d="M63.8751 101.957C63.8785 101.958 63.9804 101.96 64.2137 102.06C64.4755 102.172 64.8088 102.367 65.2098 102.659C66.0122 103.242 66.9279 104.092 67.8691 105.055C68.8029 106.01 69.7187 107.031 70.528 107.936C70.5745 107.988 70.6208 108.04 70.6669 108.092C71.3965 108.908 72.074 109.667 72.548 110.115C73.1382 110.673 74.0689 110.647 74.6269 110.057C75.1848 109.466 75.1587 108.536 74.5685 107.978C74.188 107.618 73.5816 106.939 72.775 106.037L72.7211 105.976C71.9148 105.074 70.9582 104.007 69.9722 102.998C68.9934 101.997 67.9417 101.008 66.9384 100.279C66.4365 99.9144 65.9074 99.5858 65.3733 99.3567C64.8524 99.1333 64.2156 98.956 63.5428 99.0343C62.3657 99.1712 61.2543 99.9382 60.3577 100.71C59.4055 101.529 58.4417 102.582 57.5487 103.648C56.6504 104.72 55.7911 105.845 55.0533 106.825C54.8968 107.033 54.747 107.232 54.6042 107.423C54.0583 108.15 53.613 108.744 53.2765 109.152C52.7603 109.779 52.8501 110.706 53.4772 111.222C54.1042 111.739 55.031 111.649 55.5472 111.022C55.9302 110.556 56.431 109.889 56.9828 109.153C57.12 108.97 57.2604 108.783 57.403 108.594C58.1352 107.621 58.9565 106.547 59.8031 105.537C60.6551 104.52 61.5007 103.606 62.2761 102.939C63.0987 102.231 63.6307 101.989 63.8751 101.957Z" fill="black"/>
<path d="M39.7059 84.3137C39.7059 85.6673 38.6085 86.7646 37.2549 86.7646C35.9012 86.7646 34.8039 85.6673 34.8039 84.3137C34.8039 82.96 35.9012 81.8627 37.2549 81.8627C38.6085 81.8627 39.7059 82.96 39.7059 84.3137Z" fill="black"/>
<path d="M87.745 84.3137C87.745 85.6673 86.6477 86.7646 85.2941 86.7646C83.9404 86.7646 82.8431 85.6673 82.8431 84.3137C82.8431 82.96 83.9404 81.8627 85.2941 81.8627C86.6477 81.8627 87.745 82.96 87.745 84.3137Z" fill="black"/>
</svg>
